<svg xmlns="http://www.w3.org/2000/svg" xmlns:xlink="http://www.w3.org/1999/xlink" width="143" zoomAndPan="magnify" viewBox="0 0 107.25 31.5" height="42" preserveAspectRatio="xMidYMid meet" version="1.0"><defs><g/><clipPath id="a414156bc6"><path d="M 9 11 L 26 11 L 26 28 L 9 28 Z M 9 11 " clip-rule="nonzero"/></clipPath><clipPath id="2695ea849f"><path d="M 17.804688 7.597656 L 28.773438 19.578125 L 16.792969 30.546875 L 5.828125 18.566406 Z M 17.804688 7.597656 " clip-rule="nonzero"/></clipPath><clipPath id="ee08a945dd"><path d="M 17.804688 7.597656 L 28.773438 19.578125 L 16.792969 30.546875 L 5.828125 18.566406 Z M 17.804688 7.597656 " clip-rule="nonzero"/></clipPath><clipPath id="95f7530927"><path d="M 3.570312 2.019531 L 31.625 2.019531 L 31.625 13 L 3.570312 13 Z M 3.570312 2.019531 " clip-rule="nonzero"/></clipPath><clipPath id="10307627ec"><path d="M 5 14 L 9 14 L 9 19.738281 L 5 19.738281 Z M 5 14 " clip-rule="nonzero"/></clipPath><clipPath id="8ddb87ea05"><path d="M 6 16 L 7 16 L 7 19.738281 L 6 19.738281 Z M 6 16 " clip-rule="nonzero"/></clipPath><clipPath id="ddd9a4c455"><path d="M 6 17 L 8 17 L 8 19.738281 L 6 19.738281 Z M 6 17 " clip-rule="nonzero"/></clipPath><clipPath id="0cdce81e0b"><path d="M 7 16 L 9 16 L 9 19.738281 L 7 19.738281 Z M 7 16 " clip-rule="nonzero"/></clipPath></defs><g clip-path="url(#a414156bc6)"><g clip-path="url(#2695ea849f)"><g clip-path="url(#ee08a945dd)"><path fill="#ef5422" d="M 23.398438 13.707031 C 20.308594 10.335938 15.070312 10.101562 11.695312 13.191406 C 8.324219 16.28125 8.089844 21.519531 11.179688 24.894531 C 14.269531 28.269531 19.507812 28.5 22.882812 25.410156 C 26.257812 22.320312 26.488281 17.082031 23.398438 13.707031 Z M 12.761719 14.292969 L 13.414062 13.695312 C 13.769531 13.367188 14.324219 13.394531 14.648438 13.75 C 14.972656 14.105469 14.949219 14.65625 14.59375 14.980469 L 13.941406 15.582031 Z M 13.296875 18.539062 C 12.941406 18.863281 12.386719 18.839844 12.0625 18.484375 C 11.738281 18.128906 11.761719 17.574219 12.117188 17.25 L 13.933594 15.589844 L 15.109375 16.875 Z M 17.789062 14.425781 C 18.144531 14.097656 18.695312 14.125 19.023438 14.480469 C 19.347656 14.835938 19.324219 15.386719 18.96875 15.710938 L 16.296875 18.15625 L 15.117188 16.867188 Z M 20.3125 25.132812 C 19.988281 24.777344 20.011719 24.222656 20.367188 23.898438 L 21.011719 23.304688 L 19.835938 22.019531 L 17.535156 24.125 C 17.179688 24.449219 16.625 24.425781 16.300781 24.070312 C 15.976562 23.714844 16 23.164062 16.355469 22.835938 L 18.652344 20.734375 L 17.472656 19.449219 L 12.945312 23.589844 C 12.589844 23.917969 12.039062 23.894531 11.710938 23.539062 C 11.386719 23.179688 11.410156 22.628906 11.765625 22.304688 L 16.292969 18.160156 L 17.472656 19.449219 L 21.871094 15.421875 C 22.226562 15.09375 22.777344 15.121094 23.105469 15.476562 C 23.429688 15.832031 23.40625 16.382812 23.050781 16.707031 L 18.65625 20.730469 L 19.835938 22.019531 L 20.8125 21.125 C 21.167969 20.796875 21.71875 20.824219 22.046875 21.179688 C 22.371094 21.535156 22.347656 22.085938 21.992188 22.410156 L 21.011719 23.304688 L 22.191406 24.59375 L 21.546875 25.1875 C 21.191406 25.511719 20.636719 25.488281 20.3125 25.132812 Z M 20.3125 25.132812 " fill-opacity="1" fill-rule="nonzero"/></g></g></g><path fill="#5b2d88" d="M 14.675781 13.273438 C 16.683594 13.066406 19.074219 13.222656 21.066406 13.6875 C 22.226562 13.960938 24.089844 14.539062 24.660156 15.554688 C 24.65625 15.496094 24.644531 15.4375 24.621094 15.386719 C 24.65625 14.617188 24.695312 13.789062 24.734375 12.9375 C 24.730469 12.9375 24.730469 12.9375 24.730469 12.9375 C 24.761719 12.261719 24.792969 11.574219 24.820312 10.894531 C 24.714844 10.183594 23.402344 9.445312 21.382812 8.972656 C 19.402344 8.503906 17.03125 8.335938 15.03125 8.527344 C 12.828125 8.734375 11.308594 9.34375 10.75 10.242188 C 10.734375 10.324219 10.703125 10.527344 10.699219 10.730469 C 10.691406 11.222656 10.683594 11.824219 10.671875 12.433594 C 10.667969 12.433594 10.664062 12.433594 10.660156 12.429688 C 10.644531 13.417969 10.625 14.183594 10.601562 14.675781 C 11.25 14.085938 12.449219 13.5 14.675781 13.273438 " fill-opacity="1" fill-rule="nonzero"/><g clip-path="url(#95f7530927)"><path fill="#5b2d88" d="M 31.824219 8.542969 L 17.644531 2.046875 C 17.589844 2.023438 17.527344 2.023438 17.472656 2.046875 L 3.703125 8.34375 C 3.625 8.378906 3.570312 8.460938 3.570312 8.554688 C 3.570312 8.648438 3.621094 8.730469 3.699219 8.769531 L 10.210938 11.9375 C 10.21875 11.53125 10.226562 11.09375 10.230469 10.628906 C 10.234375 10.3125 10.300781 10.007812 10.304688 9.992188 L 10.3125 9.953125 L 10.335938 9.917969 C 10.773438 9.171875 11.9375 8.222656 14.992188 7.933594 C 17.035156 7.742188 19.460938 7.910156 21.484375 8.390625 C 22.835938 8.707031 25.128906 9.441406 25.289062 10.757812 L 25.289062 10.800781 C 25.265625 11.316406 25.242188 11.835938 25.21875 12.351562 L 31.832031 8.96875 C 31.910156 8.929688 31.957031 8.84375 31.957031 8.753906 C 31.953125 8.660156 31.902344 8.578125 31.824219 8.542969 " fill-opacity="1" fill-rule="nonzero"/></g><path fill="#ef5422" d="M 7.296875 14.207031 L 6.859375 14.199219 L 6.949219 9.285156 L 7.386719 9.292969 L 7.296875 14.207031 " fill-opacity="1" fill-rule="nonzero"/><g clip-path="url(#10307627ec)"><path fill="#ef5422" d="M 6.757812 14.804688 C 5.96875 15.867188 5.703125 17.316406 5.835938 19.066406 C 6.957031 20.011719 7.800781 19.976562 8.433594 19.195312 C 8.445312 15.824219 7.949219 14.148438 6.757812 14.804688 " fill-opacity="1" fill-rule="evenodd"/></g><g clip-path="url(#8ddb87ea05)"><path fill="#502108" d="M 6.566406 19.566406 L 6.472656 16.125 L 6.144531 19.308594 C 6.292969 19.410156 6.429688 19.496094 6.566406 19.566406 " fill-opacity="1" fill-rule="evenodd"/></g><g clip-path="url(#ddd9a4c455)"><path fill="#502108" d="M 7.15625 17.671875 L 7.164062 19.132812 L 6.949219 17.226562 L 7.074219 19.65625 C 7.210938 19.699219 7.34375 19.722656 7.46875 19.730469 L 7.480469 19.730469 L 7.15625 17.671875 " fill-opacity="1" fill-rule="evenodd"/></g><g clip-path="url(#0cdce81e0b)"><path fill="#502108" d="M 7.710938 16.414062 L 7.746094 19.714844 C 7.828125 19.683594 7.910156 19.644531 7.988281 19.597656 L 8.070312 18.003906 L 7.851562 17.894531 L 7.710938 16.414062 " fill-opacity="1" fill-rule="evenodd"/></g><path fill="#502108" d="M 7.234375 13.492188 C 7.691406 13.511719 8.039062 13.878906 8.019531 14.308594 C 7.996094 14.738281 7.613281 15.070312 7.15625 15.046875 C 6.703125 15.023438 6.351562 14.65625 6.375 14.226562 C 6.394531 13.796875 6.78125 13.46875 7.234375 13.492188 " fill-opacity="1" fill-rule="evenodd"/><g fill="#5b2d88" fill-opacity="1"><g transform="translate(31.794471, 22.703535)"><g><path d="M 7.96875 -12.359375 L 7.96875 -9.890625 L 3.71875 -9.890625 L 3.71875 -7.4375 L 7.796875 -7.4375 L 7.796875 -4.953125 L 3.71875 -4.953125 L 3.71875 -2.46875 L 7.96875 -2.46875 L 7.96875 0 L 0.90625 0 L 0.90625 -12.359375 Z M 7.96875 -12.359375 "/></g></g></g><g fill="#5b2d88" fill-opacity="1"><g transform="translate(40.478997, 22.703535)"><g><path d="M 1.421875 -0.953125 C 0.703125 -1.734375 0.34375 -2.691406 0.34375 -3.828125 C 0.34375 -4.972656 0.703125 -5.9375 1.421875 -6.71875 C 2.140625 -7.507812 3.054688 -7.90625 4.171875 -7.90625 C 5.179688 -7.90625 6.019531 -7.585938 6.6875 -6.953125 L 6.6875 -12.890625 L 9.328125 -12.890625 L 9.328125 0 L 6.71875 0 L 6.71875 -0.875 L 6.6875 -0.875 C 6.019531 -0.144531 5.179688 0.21875 4.171875 0.21875 C 3.054688 0.21875 2.140625 -0.171875 1.421875 -0.953125 Z M 3.671875 -5.140625 C 3.328125 -4.796875 3.15625 -4.359375 3.15625 -3.828125 C 3.15625 -3.304688 3.320312 -2.875 3.65625 -2.53125 C 3.988281 -2.195312 4.421875 -2.03125 4.953125 -2.03125 C 5.472656 -2.03125 5.898438 -2.203125 6.234375 -2.546875 C 6.578125 -2.890625 6.75 -3.320312 6.75 -3.84375 C 6.75 -4.363281 6.570312 -4.796875 6.21875 -5.140625 C 5.875 -5.484375 5.453125 -5.65625 4.953125 -5.65625 C 4.453125 -5.65625 4.023438 -5.484375 3.671875 -5.140625 Z M 3.671875 -5.140625 "/></g></g></g><g fill="#5b2d88" fill-opacity="1"><g transform="translate(50.705774, 22.703535)"><g><path d="M 3.40625 -7.6875 L 3.40625 -4.03125 C 3.40625 -3.269531 3.519531 -2.726562 3.75 -2.40625 C 3.976562 -2.09375 4.363281 -1.9375 4.90625 -1.9375 C 5.457031 -1.9375 5.847656 -2.09375 6.078125 -2.40625 C 6.304688 -2.726562 6.421875 -3.269531 6.421875 -4.03125 L 6.421875 -7.6875 L 9.078125 -7.6875 L 9.078125 -3.390625 C 9.078125 -2.109375 8.742188 -1.1875 8.078125 -0.625 C 7.421875 -0.0625 6.363281 0.21875 4.90625 0.21875 C 3.457031 0.21875 2.398438 -0.0625 1.734375 -0.625 C 1.078125 -1.1875 0.75 -2.109375 0.75 -3.390625 L 0.75 -7.6875 Z M 3.40625 -7.6875 "/></g></g></g><g fill="#ef5422" fill-opacity="1"><g transform="translate(60.52976, 22.703535)"><g><path d="M 0.90625 -12.359375 L 5.40625 -12.359375 C 6.664062 -12.359375 7.6875 -12.035156 8.46875 -11.390625 C 9.25 -10.742188 9.640625 -9.800781 9.640625 -8.5625 C 9.640625 -7.320312 9.242188 -6.347656 8.453125 -5.640625 C 7.660156 -4.929688 6.644531 -4.578125 5.40625 -4.578125 L 3.71875 -4.578125 L 3.71875 0 L 0.90625 0 Z M 3.71875 -6.828125 L 4.515625 -6.828125 C 5.140625 -6.828125 5.65625 -6.953125 6.0625 -7.203125 C 6.46875 -7.460938 6.671875 -7.882812 6.671875 -8.46875 C 6.671875 -9.050781 6.46875 -9.46875 6.0625 -9.71875 C 5.65625 -9.976562 5.140625 -10.109375 4.515625 -10.109375 L 3.71875 -10.109375 Z M 3.71875 -6.828125 "/></g></g></g><g fill="#ef5422" fill-opacity="1"><g transform="translate(70.501987, 22.703535)"><g><path d="M 3.40625 -7.6875 L 3.40625 -4.03125 C 3.40625 -3.269531 3.519531 -2.726562 3.75 -2.40625 C 3.976562 -2.09375 4.363281 -1.9375 4.90625 -1.9375 C 5.457031 -1.9375 5.847656 -2.09375 6.078125 -2.40625 C 6.304688 -2.726562 6.421875 -3.269531 6.421875 -4.03125 L 6.421875 -7.6875 L 9.078125 -7.6875 L 9.078125 -3.390625 C 9.078125 -2.109375 8.742188 -1.1875 8.078125 -0.625 C 7.421875 -0.0625 6.363281 0.21875 4.90625 0.21875 C 3.457031 0.21875 2.398438 -0.0625 1.734375 -0.625 C 1.078125 -1.1875 0.75 -2.109375 0.75 -3.390625 L 0.75 -7.6875 Z M 3.40625 -7.6875 "/></g></g></g><g fill="#ef5422" fill-opacity="1"><g transform="translate(80.324486, 22.703535)"><g><path d="M 0.90625 0 L 0.90625 -12.890625 L 3.546875 -12.890625 L 3.546875 0 Z M 0.90625 0 "/></g></g></g><g fill="#ef5422" fill-opacity="1"><g transform="translate(84.771556, 22.703535)"><g><path d="M 4.234375 -7.90625 C 4.679688 -7.90625 5.117188 -7.851562 5.546875 -7.75 C 5.972656 -7.65625 6.289062 -7.5625 6.5 -7.46875 L 6.8125 -7.3125 L 5.953125 -5.578125 C 5.347656 -5.890625 4.773438 -6.046875 4.234375 -6.046875 C 3.941406 -6.046875 3.734375 -6.015625 3.609375 -5.953125 C 3.484375 -5.890625 3.421875 -5.769531 3.421875 -5.59375 C 3.421875 -5.550781 3.425781 -5.507812 3.4375 -5.46875 C 3.445312 -5.425781 3.460938 -5.382812 3.484375 -5.34375 C 3.515625 -5.3125 3.539062 -5.285156 3.5625 -5.265625 C 3.59375 -5.242188 3.640625 -5.21875 3.703125 -5.1875 C 3.765625 -5.15625 3.8125 -5.128906 3.84375 -5.109375 C 3.875 -5.097656 3.929688 -5.078125 4.015625 -5.046875 C 4.097656 -5.015625 4.15625 -4.988281 4.1875 -4.96875 C 4.226562 -4.957031 4.296875 -4.9375 4.390625 -4.90625 C 4.492188 -4.882812 4.566406 -4.867188 4.609375 -4.859375 C 4.921875 -4.765625 5.191406 -4.660156 5.421875 -4.546875 C 5.648438 -4.441406 5.890625 -4.296875 6.140625 -4.109375 C 6.398438 -3.921875 6.597656 -3.679688 6.734375 -3.390625 C 6.878906 -3.097656 6.953125 -2.765625 6.953125 -2.390625 C 6.953125 -0.648438 5.738281 0.21875 3.3125 0.21875 C 2.757812 0.21875 2.234375 0.132812 1.734375 -0.03125 C 1.242188 -0.195312 0.890625 -0.367188 0.671875 -0.546875 L 0.34375 -0.8125 L 1.421875 -2.625 C 1.503906 -2.550781 1.609375 -2.46875 1.734375 -2.375 C 1.867188 -2.28125 2.101562 -2.148438 2.4375 -1.984375 C 2.78125 -1.816406 3.078125 -1.734375 3.328125 -1.734375 C 3.878906 -1.734375 4.15625 -1.921875 4.15625 -2.296875 C 4.15625 -2.460938 4.082031 -2.59375 3.9375 -2.6875 C 3.800781 -2.78125 3.566406 -2.882812 3.234375 -3 C 2.898438 -3.125 2.632812 -3.238281 2.4375 -3.34375 C 1.957031 -3.59375 1.578125 -3.875 1.296875 -4.1875 C 1.023438 -4.5 0.890625 -4.914062 0.890625 -5.4375 C 0.890625 -6.21875 1.191406 -6.820312 1.796875 -7.25 C 2.398438 -7.6875 3.210938 -7.90625 4.234375 -7.90625 Z M 4.234375 -7.90625 "/></g></g></g><g fill="#ef5422" fill-opacity="1"><g transform="translate(92.138428, 22.703535)"><g><path d="M 8.671875 -3.46875 L 3.109375 -3.46875 C 3.109375 -2.9375 3.28125 -2.539062 3.625 -2.28125 C 3.976562 -2.019531 4.359375 -1.890625 4.765625 -1.890625 C 5.191406 -1.890625 5.53125 -1.945312 5.78125 -2.0625 C 6.03125 -2.175781 6.316406 -2.398438 6.640625 -2.734375 L 8.5625 -1.78125 C 7.757812 -0.445312 6.425781 0.21875 4.5625 0.21875 C 3.40625 0.21875 2.410156 -0.175781 1.578125 -0.96875 C 0.753906 -1.757812 0.34375 -2.710938 0.34375 -3.828125 C 0.34375 -4.953125 0.753906 -5.910156 1.578125 -6.703125 C 2.410156 -7.503906 3.40625 -7.90625 4.5625 -7.90625 C 5.78125 -7.90625 6.769531 -7.550781 7.53125 -6.84375 C 8.300781 -6.144531 8.6875 -5.144531 8.6875 -3.84375 C 8.6875 -3.65625 8.679688 -3.53125 8.671875 -3.46875 Z M 3.171875 -4.9375 L 6.09375 -4.9375 C 6.039062 -5.34375 5.882812 -5.648438 5.625 -5.859375 C 5.375 -6.078125 5.046875 -6.1875 4.640625 -6.1875 C 4.203125 -6.1875 3.851562 -6.070312 3.59375 -5.84375 C 3.332031 -5.613281 3.191406 -5.3125 3.171875 -4.9375 Z M 3.171875 -4.9375 "/></g></g></g></svg>